<?xml version="1.0" encoding="utf-8"?>
<!-- Generator: Adobe Illustrator 21.1.0, SVG Export Plug-In . SVG Version: 6.00 Build 0)  -->
<svg version="1.1" id="Layer_1" xmlns="http://www.w3.org/2000/svg" xmlns:xlink="http://www.w3.org/1999/xlink" x="0px" y="0px"
	 viewBox="0 0 250 500" style="enable-background:new 0 0 250 500;" xml:space="preserve">
<style type="text/css">
	.st0{fill:#FFFFFF;stroke:#000000;stroke-width:0.25;stroke-miterlimit:10;}
	.st1{fill:#A20011;}
	.st2{fill:#FFFFFF;}
	.st3{fill:#990066;}
</style>
<path class="st0" d="M40.4,76.3"/>
<path d="M177.8,332.7c-1,10.2-8.6,66.9-9.3,70.7c-0.6,3.8-41.1,36.6-41.1,68.8s26.7,9.2,28.3,4.5c1.6-4.8,9.6-20.7,14.6-33.4
	c5.1-12.7,19.7-14,14.3,13.1c-5.4,27.1-11.8,48.1,12.1,43c23.9-5.1,19.4-93.3,19.4-93.3l0.3-68.1c0,0-1.3-8.9,3.8-1.9
	c5.1,7,11.5,17.5,25.1,14.3c13.7-3.2-10-25.6-26.6-29.1c2.3-24.4,3.4-90.3-2.5-125.8s-25.6-112-83.1-119
	c14.9-31.8,45.4-67.7,16.2-73.6c-24.3-5-27.1,27.2-38.2,65.3c-0.6,2-2.5,3.4-4.6,3.2c-17.6-1.3-34.8-0.5-42.2,0.6
	c-2.1,0.3-3.8-1.1-4.4-3.1C52.2,42,55.5,15.9,37.7,3.5C26.9-4.1,14.5,1.3,13.6,14c-0.7,11.2,20.6,51.7,25.7,61.3
	c0.6,1.1,0,2.3-1.2,2.7C9.7,86.7,2,113,2,113s-2.8,13.5-1.1,22.3s4.6,18.3,7.9,24.4s10.7,18.7,27.3,25.5
	c15.8,6.4,21.1,5.7,50.5,20.5c29.4,14.8,51.7,24.7,67.5,44.8s24.2,42.8,23.6,71.8"/>
<path class="st1" d="M52.3,100.1c-0.1,0.5-0.2,1-0.2,1.5c0,5.1,4.6,9.3,10.3,9.3s10.3-4.1,10.3-9.3c0-0.5-0.1-1-0.2-1.5H52.3z"/>
<path class="st1" d="M89.1,100c0,0.2,0,0.5,0,0.7c0.8,5.6,6.4,9.5,12.5,8.6c6.1-0.9,10.5-6.1,9.7-11.7c-0.1-0.9-0.4-1.7-0.8-2.5
	L89.1,100z"/>
<g>
	<circle cx="81.6" cy="112.1" r="3.9"/>
	<g>
		<g>
			<g>
				<g>
					<path class="st2" d="M85.7,112C85.7,112.1,85.7,112.1,85.7,112C85.7,112,85.7,112.1,85.7,112z"/>
					<polygon class="st2" points="85.5,111.4 85.5,111.4 85.5,111.4 					"/>
					<path class="st2" d="M85.4,110.9c-0.1,0.1,0.1,0.2,0.1,0.3l0,0l0.1,0C85.5,111.1,85.4,111,85.4,110.9z"/>
					<path class="st2" d="M85.4,110.5C85.4,110.6,85.4,110.5,85.4,110.5C85.5,110.6,85.5,110.6,85.4,110.5
						C85.5,110.6,85.4,110.6,85.4,110.5z"/>
					<path class="st2" d="M85.5,110.6C85.5,110.6,85.5,110.5,85.5,110.6L85.5,110.6z"/>
					<path class="st2" d="M85.3,110.3L85.3,110.3C85.4,110.4,85.4,110.3,85.3,110.3C85.3,110.3,85.3,110.3,85.3,110.3z"/>
					<path class="st2" d="M85.2,110.3L85.2,110.3C85.3,110.3,85.3,110.3,85.2,110.3z"/>
					<path class="st2" d="M85.3,110.4L85.3,110.4C85.3,110.3,85.2,110.3,85.3,110.4C85.3,110.4,85.3,110.4,85.3,110.4z"/>
					<path class="st2" d="M85.3,110.4C85.4,110.5,85.4,110.5,85.3,110.4C85.4,110.6,85.4,110.6,85.3,110.4z"/>
					<path class="st2" d="M85.3,110.9L85.3,110.9l0,0.1C85.3,111,85.3,110.9,85.3,110.9z"/>
					<path class="st2" d="M85.1,109.9C85.1,109.9,85.1,109.9,85.1,109.9l0,0.1C85.1,109.9,85.1,109.9,85.1,109.9z"/>
					<path class="st2" d="M85.1,109.9L85.1,109.9C85,109.9,85.1,109.9,85.1,109.9z"/>
					<polygon class="st2" points="85.2,110.3 85.3,110.4 85.2,110.3 					"/>
					<polygon class="st2" points="84.9,109.6 85,109.6 84.9,109.5 					"/>
					<path class="st2" d="M84.8,109.4C84.8,109.4,84.8,109.3,84.8,109.4c0-0.1-0.1-0.1-0.1-0.1C84.7,109.3,84.7,109.3,84.8,109.4z"
						/>
					<path class="st2" d="M84.6,109.2C84.6,109.2,84.6,109.2,84.6,109.2C84.6,109.2,84.6,109.2,84.6,109.2z"/>
					<path class="st2" d="M84.9,109.7C84.9,109.7,84.9,109.7,84.9,109.7L84.9,109.7L84.9,109.7z"/>
					<path class="st2" d="M84.9,109.7L84.9,109.7C84.9,109.7,84.9,109.6,84.9,109.7C84.9,109.6,84.9,109.7,84.9,109.7z"/>
					<path class="st2" d="M84.9,109.7L84.9,109.7C84.9,109.7,84.9,109.7,84.9,109.7z"/>
					<path class="st2" d="M85.1,110.1c0,0-0.1-0.1-0.1,0C85,110.1,85,110,85.1,110.1z"/>
					<path class="st2" d="M84.9,109.8L84.9,109.8C85,109.9,85,109.9,84.9,109.8L84.9,109.8z"/>
					<polygon class="st2" points="84.9,109.8 84.9,109.8 84.9,109.8 					"/>
					<path class="st2" d="M84.7,109.4c0,0-0.1-0.1-0.1-0.1C84.6,109.3,84.6,109.4,84.7,109.4C84.7,109.4,84.7,109.4,84.7,109.4z"/>
					<path class="st2" d="M84.8,109.5L84.8,109.5C84.8,109.5,84.8,109.5,84.8,109.5z"/>
					<polygon class="st2" points="84.2,108.9 84.2,108.9 84.2,108.9 					"/>
					<path class="st2" d="M84.7,109.4C84.7,109.4,84.7,109.5,84.7,109.4C84.7,109.4,84.7,109.4,84.7,109.4
						C84.6,109.4,84.6,109.4,84.7,109.4z"/>
					<path class="st2" d="M84.5,109.1C84.5,109.1,84.5,109.2,84.5,109.1C84.5,109.2,84.5,109.1,84.5,109.1z"/>
					<path class="st2" d="M84.8,109.5L84.8,109.5C84.8,109.5,84.8,109.5,84.8,109.5z"/>
					<path class="st2" d="M84.8,109.5C84.8,109.5,84.7,109.5,84.8,109.5C84.7,109.5,84.8,109.5,84.8,109.5
						C84.8,109.5,84.8,109.5,84.8,109.5z"/>
					<path class="st2" d="M83.9,109c0,0,0.1,0,0.2,0.1c0.1,0,0.1-0.1,0.1-0.2c0,0,0,0-0.1,0c0,0,0.1,0.2,0,0.1
						c-0.1-0.1-0.1-0.1-0.1-0.1C84,109,83.9,108.9,83.9,109L83.9,109C83.9,109,83.9,109,83.9,109z"/>
					<path class="st2" d="M84.3,109.1L84.3,109.1c0,0,0,0,0-0.1c-0.1,0-0.1,0-0.1,0L84.3,109.1L84.3,109.1z"/>
					<path class="st2" d="M84.5,109.2c0,0-0.1,0-0.1,0C84.4,109.3,84.4,109.3,84.5,109.2C84.4,109.2,84.5,109.3,84.5,109.2
						C84.5,109.2,84.5,109.2,84.5,109.2C84.5,109.2,84.5,109.2,84.5,109.2L84.5,109.2L84.5,109.2L84.5,109.2
						C84.5,109.2,84.5,109.2,84.5,109.2L84.5,109.2L84.5,109.2C84.5,109.2,84.5,109.2,84.5,109.2L84.5,109.2L84.5,109.2
						c0-0.1-0.1-0.1-0.1-0.1C84.4,109.1,84.4,109.1,84.5,109.2z"/>
					<path class="st2" d="M84.9,110C84.9,110,84.9,110,84.9,110C84.9,110,84.9,110,84.9,110z"/>
					<path class="st2" d="M84.8,110C84.9,110,84.9,110,84.8,110C84.9,110,84.9,110,84.8,110C84.9,110,84.9,110.1,84.8,110L84.8,110
						c0,0,0-0.1,0-0.1C84.9,109.9,84.9,109.9,84.8,110z"/>
					<path class="st2" d="M84.7,109.6c0,0-0.1-0.1-0.1-0.1L84.7,109.6L84.7,109.6C84.6,109.6,84.7,109.6,84.7,109.6z"/>
					<polygon class="st2" points="84.2,108.9 84.2,108.9 84.1,108.9 					"/>
					<polygon class="st2" points="84,108.8 84.1,108.8 84,108.7 					"/>
					<path class="st2" d="M78.4,113.9L78.4,113.9C78.5,113.9,78.4,113.9,78.4,113.9z"/>
					<path class="st2" d="M78.3,113.7L78.3,113.7C78.3,113.7,78.3,113.7,78.3,113.7z"/>
					<path class="st2" d="M79.4,108.6c-0.1,0-0.2,0-0.1,0L79.4,108.6C79.3,108.6,79.4,108.6,79.4,108.6z"/>
					<polygon class="st2" points="77.8,111.3 77.8,111.3 77.8,111.3 					"/>
					<path class="st2" d="M77.9,111.4L77.9,111.4C77.9,111.5,77.9,111.4,77.9,111.4z"/>
					<path class="st2" d="M79.5,115L79.5,115C79.5,115,79.6,115,79.5,115z"/>
					<path class="st2" d="M82.1,108c-0.1,0-0.1,0-0.1,0C82.1,108,82.1,108.1,82.1,108z"/>
					<path class="st2" d="M78,114.1C78,114.1,78,114.1,78,114.1C78,114.1,78,114,78,114.1z"/>
					<path class="st2" d="M81.8,108C81.9,108,81.9,108,81.8,108c0.1,0,0.1,0,0.2,0C82,107.9,81.9,107.9,81.8,108z"/>
					<path class="st2" d="M84.6,114.1C84.6,114.1,84.6,114.1,84.6,114.1C84.6,114.1,84.6,114.1,84.6,114.1z"/>
					<path class="st2" d="M85.6,112.6C85.6,112.7,85.6,112.7,85.6,112.6C85.6,112.7,85.6,112.7,85.6,112.6z"/>
					<path class="st2" d="M83.3,108.3C83.4,108.4,83.4,108.3,83.3,108.3L83.3,108.3z"/>
					<path class="st2" d="M83.5,108.6C83.4,108.6,83.4,108.6,83.5,108.6C83.4,108.6,83.4,108.6,83.5,108.6z"/>
					<path class="st2" d="M81.4,108.2L81.4,108.2C81.4,108.2,81.4,108.2,81.4,108.2z"/>
					<path class="st2" d="M83.4,108.4C83.4,108.4,83.4,108.4,83.4,108.4C83.4,108.4,83.4,108.4,83.4,108.4z"/>
					<path class="st2" d="M83.4,108.4C83.4,108.4,83.4,108.4,83.4,108.4C83.4,108.4,83.4,108.4,83.4,108.4z"/>
					<path class="st2" d="M83.3,108.3C83.3,108.3,83.3,108.3,83.3,108.3C83.3,108.3,83.3,108.3,83.3,108.3
						C83.3,108.3,83.3,108.3,83.3,108.3z"/>
					<path class="st2" d="M82.1,115.8L82.1,115.8C82.1,115.8,82.1,115.8,82.1,115.8z"/>
					<polygon class="st2" points="78.9,109.6 78.9,109.6 78.9,109.6 					"/>
					<path class="st2" d="M78.8,109.7c0-0.1,0-0.1,0.1-0.1l-0.1-0.1L78.8,109.7z"/>
					<path class="st2" d="M78.9,114.5L78.9,114.5c0.1-0.1,0.1,0,0.1-0.1c-0.1,0.1-0.2-0.3-0.4-0.2l0-0.1c0,0,0,0,0,0
						c0-0.1-0.1,0-0.2-0.2c0-0.1,0-0.1,0-0.1l-0.1-0.1c0,0,0,0,0,0l-0.1-0.2l0,0c0,0-0.1-0.1-0.1-0.1c0-0.1,0,0,0,0l-0.1-0.1
						c0-0.1,0.1,0,0.1,0.1c0.1-0.1-0.1-0.1-0.1-0.3l0,0.1c0.1-0.1,0-0.1,0-0.3c0,0,0,0.2-0.1,0.1c0,0,0-0.1-0.1-0.1c0,0,0-0.1,0-0.1
						l0.1,0c0-0.1-0.1-0.1-0.1-0.1c0-0.1,0-0.1,0.1-0.1c0-0.1-0.1,0.1-0.1-0.1c0-0.1,0-0.2-0.1-0.3c0-0.1,0,0,0.1,0l-0.1-0.1
						c0,0,0,0,0,0c0-0.1-0.1,0-0.1-0.1c-0.1,0,0.1-0.2,0-0.3c0,0,0,0,0.1,0c0-0.2,0-0.1-0.1-0.3l0.1-0.1c-0.1,0.1-0.1,0-0.1-0.1
						c0,0-0.1,0.1-0.1,0.1c0-0.1,0-0.1,0-0.2c0,0,0,0,0.1,0l0,0c0-0.1,0.1,0,0.1,0l-0.1,0c0,0,0.1,0.1,0.1,0.1c0,0,0,0,0-0.1
						c0,0,0,0,0,0c0,0,0,0,0-0.1l0.1,0l0,0l0.1-0.2c0-0.2-0.1-0.3,0-0.5c0,0.1,0.1,0,0.1,0.1c-0.1,0,0,0.2-0.1,0.3
						c0-0.1,0.1,0,0.1,0l0-0.2c0,0,0,0,0.1-0.1c-0.1,0,0-0.2,0-0.3c0,0,0.1,0,0,0.1c0.1-0.1,0-0.2,0.1-0.3c0,0,0,0,0,0
						c0-0.1,0.1-0.2,0.1-0.1l0,0c0.1-0.1,0.3-0.4,0.2-0.5c0,0,0.1,0.1,0.1,0.1c0-0.1,0-0.3,0-0.4c0,0.1,0.2,0.1,0.2,0.2
						c0,0,0.1-0.1,0.1-0.1c0,0-0.1,0-0.1-0.1c0.1,0,0.1,0,0.2-0.1c0,0-0.1-0.1,0-0.1c0,0,0.1,0.1,0.1,0.1c0-0.1,0-0.1,0.1-0.2
						c0,0,0.1,0.1,0.1,0.1c0,0,0.1-0.1,0.1-0.1l-0.1,0c0.2-0.1,0.1-0.2,0.2-0.3c0,0,0,0.2,0.1,0.1c0-0.1,0-0.3,0.2-0.5l0,0
						c0,0,0.1-0.1,0.1-0.1c0,0.1-0.2,0.4-0.2,0.5c0.1,0,0,0,0.1,0c0,0,0,0.1-0.1,0.1l0.2-0.1c0-0.1,0.1-0.1,0.1-0.2
						c-0.1,0-0.1,0.1-0.2,0.2c0-0.1,0.1-0.2,0.2-0.3c0.1,0,0,0.1,0,0.1c0,0,0.1-0.1,0.2-0.1l-0.1,0.1c0.1,0,0.1-0.1,0.2-0.1
						c0,0,0.1,0.1,0.1,0c-0.1-0.1-0.2-0.3-0.1-0.4c0,0,0.2,0,0.3,0.1c0.1,0-0.1,0.2,0,0.2c0,0,0,0,0-0.1c0,0,0,0.1,0.1,0
						c0-0.1,0.2,0,0-0.1c0.1,0,0.1,0,0.2,0c0,0,0.1-0.2,0.2-0.2c0,0,0,0,0,0c0.2,0,0.3,0,0.5,0c0,0,0.1,0,0.1,0.1c0,0,0.1,0,0.1,0
						c0.1,0.1-0.1,0,0,0.1c0,0,0.1,0,0.2,0c0-0.1-0.2,0-0.2,0c0-0.1,0.2-0.2,0.3-0.2c0.2,0,0.1,0.1,0.1,0.1c0.3,0.1,0.3-0.1,0.5,0
						c0.1,0.1,0,0.1,0,0.1c-0.1,0-0.2-0.1-0.2-0.1l0.1,0c0,0-0.1,0-0.2,0c0.1,0.1,0.4,0.1,0.6,0.3c0,0,0.1,0,0.1,0l-0.1,0
						c0-0.1,0.1,0,0.1-0.1c0.1,0,0.2,0,0.3,0.1l0,0.1c0,0-0.1-0.1-0.1-0.1c0.1,0,0.1,0.2,0.2,0.1l-0.1-0.1c0.1,0,0.2,0,0.3,0.1
						c0-0.1,0,0-0.1-0.1c0,0.1-0.3-0.2-0.2,0c0-0.1-0.1-0.1-0.2-0.2c0,0,0,0.1-0.1,0c0,0,0,0,0,0l0,0l0,0c0,0,0,0,0,0c0,0,0,0,0,0
						c-0.1,0-0.2,0-0.3,0c0,0,0,0,0,0c0,0-0.1,0-0.1,0c0,0-0.1-0.1,0-0.1l-0.1,0c-0.1,0-0.2-0.1-0.2-0.1c-0.1,0-0.2,0-0.1,0l-0.2,0
						l0,0c-0.2,0-0.4,0-0.6-0.1c-0.1,0-0.1,0-0.2,0l0,0c-0.1,0-0.3,0-0.3,0c-0.1-0.1-0.4,0-0.6,0l0,0.1c-0.1,0-0.2,0.1-0.3,0.1l0,0
						c-0.1,0.1-0.3,0.1-0.4,0.1c0,0,0,0,0.1,0c-0.2,0-0.4,0.2-0.6,0.3c0,0-0.1,0.1-0.1,0.1c0,0,0,0,0,0l0,0c0,0,0,0-0.1,0
						c0,0,0,0,0.1,0c0,0-0.1,0.1-0.1,0.1l0,0c0,0,0,0,0,0c-0.1,0,0,0,0,0.1c0,0,0,0,0,0.1c-0.1,0-0.1,0.1-0.2,0.1
						c0,0-0.2,0.2-0.1,0.3c0,0,0,0,0,0c0,0-0.1,0.1-0.1,0.1l-0.1,0c0,0,0,0.1,0,0.1c-0.1,0-0.1,0-0.1,0c-0.1,0.2-0.1,0.1-0.1,0.3
						l0,0c0,0,0,0.1-0.1,0.2c-0.1,0-0.4,0.5-0.5,0.8c0.1,0-0.1,0.1,0,0.2c0,0-0.1,0-0.1,0c0,0.2-0.1,0.2-0.1,0.4c0,0,0,0,0,0
						c0,0,0,0.1,0,0.1c0,0,0,0,0-0.1c0,0.2,0,0.2,0.1,0.2c-0.1,0.1-0.1,0.1,0,0.2c0,0-0.1,0.1-0.1,0c0,0.1-0.1,0.3,0,0.4
						c0,0,0,0.1,0,0.1c0,0.1,0,0.1,0,0.3l0,0c0.1,0.1,0,0.1,0,0.2l0,0c0,0.2,0,0.1,0,0.3l0,0c0.1,0,0,0.2,0,0.3l0-0.1
						c0,0.1-0.1,0.2-0.1,0.3c0,0,0,0,0,0c0,0.2,0.1,0,0.1,0.1c0,0-0.1,0-0.1,0.1c0,0.1,0.2,0.2,0.2,0.4c0,0,0-0.1,0.1,0
						c0.1,0.1,0,0.3,0.2,0.3c0,0,0,0,0,0c0.1,0.1,0.2,0.2,0.2,0.2c-0.1,0.2,0.4,0.3,0.2,0.4l0.2,0.2l0,0c0.1,0.1,0.2,0.1,0.2,0.1
						c0,0,0,0,0,0c0.1,0.2,0.2,0.2,0.4,0.2l0,0.1c0.1,0,0.2,0.3,0.5,0.3c0,0,0,0,0,0c0.2,0.1,0.5,0.4,0.7,0.2c0.1,0,0.1,0,0.2,0
						c-0.2-0.1,0.1-0.1,0-0.1c0.1,0,0.2,0.1,0.1,0.1l0,0c-0.1,0.1,0.2,0.1,0.2,0.2c0.4,0.1,0.8,0.1,1.2,0.1l-0.1-0.1l0.1,0
						c0,0,0.1,0,0,0.1c0.1,0,0.2-0.1,0.2-0.1c0.2,0-0.1,0.1,0,0.1l0.1,0l0,0c0.1,0,0.1-0.1,0.2-0.1c0.1,0,0,0,0.1,0c0,0,0,0,0,0
						l0.2,0l-0.1,0c0.1,0,0.2,0,0.1-0.1c0.1,0.1,0.6-0.2,0.7-0.2c0.1-0.1,0.2-0.1,0.3-0.2c0,0-0.1,0,0-0.1c0,0.1,0.2-0.1,0.3,0
						c-0.1,0,0.2-0.2,0.1-0.2c0.1-0.1,0,0,0.1,0c0.1-0.2,0.4-0.3,0.5-0.6c0,0-0.1,0,0-0.1l0.2-0.1c0-0.1,0-0.1,0.1-0.1c0,0,0,0,0,0
						c0.4-0.4,0.4-1,0.7-1.5c0,0.1,0,0,0,0c0,0,0,0-0.1,0l0.1-0.2c-0.1,0,0-0.3-0.1-0.3l0,0.1c-0.1-0.1-0.2,0.1-0.3,0.1
						c0.1,0.1-0.2,0.2-0.1,0.4c0,0,0,0-0.1,0c0,0,0,0.1,0,0.2l0,0c-0.1,0.3-0.1,0.4-0.3,0.6l0.1,0c0,0.1-0.1,0.1-0.1,0.1
						c0,0.1,0.1-0.2,0.1-0.1c-0.1,0-0.2,0.4-0.3,0.4c-0.1,0.1,0.1,0,0,0.1l0,0l0,0c0,0.1-0.1,0.1-0.1,0c0,0,0,0,0-0.1
						c-0.1,0-0.1,0.2-0.2,0.2l0.1-0.1c-0.1,0.2-0.4,0.4-0.5,0.6l0,0c-0.1,0.2-0.1,0.1-0.3,0.2l0,0c0,0-0.1,0.1-0.1,0.1
						c0-0.1-0.1,0-0.1-0.1c-0.2,0.1-0.1,0.1-0.2,0.2l0,0c0,0.1,0,0.1-0.1,0.1c0.1-0.1-0.1,0,0-0.1c-0.2,0-0.3,0.2-0.4,0.1
						c-0.1,0.1,0.2,0,0.2,0c0.1,0-0.1,0.1-0.1,0.1c-0.1,0-0.2-0.1-0.3,0c0,0,0,0,0,0c-0.1,0-0.1,0.1-0.2,0c0,0.1-0.1,0-0.1,0.1
						l0.2,0c-0.1,0-0.2,0.1-0.3,0.1c0,0,0.1,0,0.1-0.1c0,0-0.1,0-0.1,0c0-0.1,0.2,0,0.3-0.1c-0.1,0-0.2,0.1-0.1,0
						c-0.1,0.1-0.2,0-0.3,0.1l0,0c0,0-0.1,0-0.1,0l0.1-0.1c-0.1,0.1-0.2,0-0.3,0c0.2,0,0,0.1,0.1,0.1c-0.2,0.1-0.1-0.1-0.4-0.1
						c0,0,0.1,0,0.1,0.1c-0.1,0-0.1,0-0.1-0.1c-0.2,0,0,0.1-0.1,0.1c-0.1-0.1-0.1,0-0.2,0l0,0c-0.2-0.1-0.1,0.1-0.3,0l0.1,0l-0.1,0
						l0,0c-0.1,0-0.1,0-0.2-0.1c0,0,0,0.1-0.1,0c0,0,0,0-0.1-0.1c0,0,0.1,0,0.1,0c0,0,0,0,0,0c-0.1-0.1-0.2-0.1-0.2-0.1c0,0,0,0,0,0
						c-0.1,0-0.1,0-0.2,0c0,0,0,0,0,0c0,0-0.1,0-0.1,0c0,0,0-0.1,0.1,0l-0.2,0c0,0-0.1-0.1,0-0.1c-0.1-0.1-0.2-0.1-0.3-0.2
						c0,0,0,0-0.1,0c-0.1-0.1-0.2-0.2-0.3-0.2l0-0.1c-0.1-0.1,0,0.1-0.1,0c-0.1-0.1,0-0.1,0-0.1C79,114.6,78.8,114.5,78.9,114.5
						C78.8,114.4,78.8,114.5,78.9,114.5z M78.1,113.3C78.1,113.3,78.2,113.3,78.1,113.3C78.1,113.4,78.1,113.3,78.1,113.3z
						 M77.9,111.1C77.9,111.2,77.9,111.2,77.9,111.1C77.9,111.2,77.9,111.2,77.9,111.1z M82.9,108.2L82.9,108.2
						C82.8,108.2,82.9,108.2,82.9,108.2z M83,108.3C83,108.3,83,108.3,83,108.3C83,108.3,83,108.3,83,108.3
						C83,108.3,83,108.3,83,108.3z M82.5,116L82.5,116C82.6,116,82.5,116,82.5,116z"/>
					<path class="st2" d="M77.9,111.4C77.9,111.4,77.9,111.4,77.9,111.4C77.9,111.4,77.9,111.4,77.9,111.4z"/>
					<polygon class="st2" points="79.5,115 79.5,115 79.5,115 					"/>
					<path class="st2" d="M80.9,108.5C80.9,108.5,80.9,108.5,80.9,108.5C80.9,108.5,80.9,108.5,80.9,108.5z"/>
					<path class="st2" d="M83.7,108.5L83.7,108.5C83.7,108.5,83.7,108.5,83.7,108.5C83.7,108.5,83.7,108.5,83.7,108.5z"/>
					<path class="st2" d="M84.2,109.2C84.2,109.2,84.2,109.3,84.2,109.2L84.2,109.2C84.2,109.2,84.1,109.2,84.2,109.2z"/>
					<path class="st2" d="M83.7,108.7C83.7,108.8,83.8,108.8,83.7,108.7C83.8,108.8,83.8,108.8,83.7,108.7
						C83.9,108.8,83.8,108.7,83.7,108.7z"/>
					<path class="st2" d="M83.8,108.8L83.8,108.8C83.9,108.8,83.9,108.8,83.8,108.8z"/>
					<path class="st2" d="M83.2,108.3C83.2,108.3,83.2,108.3,83.2,108.3C83.3,108.3,83,108.3,83.2,108.3z"/>
					<polygon class="st2" points="83.7,108.9 83.7,108.8 83.7,108.8 					"/>
					<path class="st2" d="M83.3,108.6L83.3,108.6c0.1,0,0.1,0,0.1,0.1C83.4,108.6,83.3,108.6,83.3,108.6z"/>
					<path class="st2" d="M83.4,108.6C83.4,108.7,83.5,108.7,83.4,108.6C83.5,108.7,83.4,108.6,83.4,108.6z"/>
					<polygon class="st2" points="83.6,108.8 83.6,108.8 83.5,108.7 					"/>
					<path class="st2" d="M82.3,108.2l-0.1,0C82.2,108.3,82.2,108.3,82.3,108.2C82.3,108.3,82.3,108.3,82.3,108.2z"/>
					<path class="st2" d="M82.6,108.4C82.6,108.4,82.6,108.4,82.6,108.4L82.6,108.4L82.6,108.4z"/>
					<path class="st2" d="M82.3,108.4C82.3,108.4,82.1,108.4,82.3,108.4C82.3,108.4,82.4,108.4,82.3,108.4z"/>
					<polygon class="st2" points="80.7,108.3 80.8,108.3 80.7,108.2 					"/>
					<path class="st2" d="M79.6,109.1C79.7,109,79.6,109,79.6,109.1c0.1-0.1,0-0.1,0-0.1C79.6,109,79.5,109,79.6,109.1z"/>
					<path class="st2" d="M79.6,109C79.6,109,79.6,108.9,79.6,109C79.6,108.9,79.6,109,79.6,109z"/>
					<polygon class="st2" points="85.7,112.3 85.7,112.2 85.7,112.3 					"/>
					<path class="st2" d="M85.6,112.1L85.6,112.1L85.6,112.1C85.6,112.1,85.6,112.1,85.6,112.1z"/>
					<path class="st2" d="M78.2,113L78.2,113C78.2,113.1,78.2,113.1,78.2,113L78.2,113z"/>
					<polygon class="st2" points="78.5,114 78.5,114 78.5,114 					"/>
					<path class="st2" d="M79.1,114.6C79.1,114.6,79.1,114.5,79.1,114.6C79.1,114.6,79.1,114.6,79.1,114.6z"/>
				</g>
			</g>
		</g>
	</g>
</g>
<g>
	<g>
		<g>
			<g>
				<g>
					<path class="st2" d="M90.1,123.5C90.1,123.4,90.1,123.5,90.1,123.5C90.2,123.6,90.1,123.5,90.1,123.5z"/>
					<polygon class="st2" points="91.2,124.2 91.1,124.2 91.3,124.2 					"/>
					<path class="st2" d="M92,124.9c0-0.1-0.3-0.3-0.5-0.4l0,0l-0.1,0C91.7,124.6,91.9,124.8,92,124.9z"/>
					<path class="st2" d="M92.4,125.4C92.4,125.4,92.5,125.5,92.4,125.4C92.3,125.3,92.3,125.3,92.4,125.4
						C92.3,125.3,92.4,125.4,92.4,125.4z"/>
					<path class="st2" d="M92.3,125.3C92.2,125.2,92.4,125.4,92.3,125.3L92.3,125.3z"/>
					<path class="st2" d="M92.7,125.7l-0.1-0.1C92.6,125.6,92.7,125.7,92.7,125.7C92.8,125.8,92.8,125.8,92.7,125.7z"/>
					<path class="st2" d="M92.9,125.7L92.9,125.7C92.8,125.7,92.8,125.7,92.9,125.7z"/>
					<path class="st2" d="M92.7,125.6l0.1,0.1C92.8,125.7,92.8,125.7,92.7,125.6C92.8,125.6,92.7,125.6,92.7,125.6z"/>
					<path class="st2" d="M92.6,125.5C92.5,125.4,92.5,125.4,92.6,125.5C92.4,125.3,92.4,125.3,92.6,125.5z"/>
					<path class="st2" d="M92.1,124.9L92.1,124.9l-0.2-0.1C92,124.7,92.1,124.9,92.1,124.9z"/>
					<path class="st2" d="M93.4,126.4C93.4,126.4,93.4,126.3,93.4,126.4l-0.1-0.2C93.4,126.3,93.4,126.4,93.4,126.4z"/>
					<path class="st2" d="M93.4,126.3l0.1,0.1C93.4,126.3,93.4,126.3,93.4,126.3z"/>
					<polygon class="st2" points="93,125.7 92.7,125.6 93,125.7 					"/>
					<polygon class="st2" points="93.9,126.9 93.8,126.8 93.9,126.9 					"/>
					<path class="st2" d="M94.2,127.2C94.1,127.1,94.2,127.3,94.2,127.2c0,0.1,0.1,0.2,0.2,0.3C94.3,127.4,94.2,127.3,94.2,127.2z"
						/>
					<path class="st2" d="M94.5,127.5c0,0-0.1-0.1-0.1-0.1C94.4,127.5,94.5,127.5,94.5,127.5z"/>
					<path class="st2" d="M93.8,126.6c0,0,0,0.1,0.1,0.1L93.8,126.6L93.8,126.6z"/>
					<path class="st2" d="M93.8,126.7L93.8,126.7c0.1,0.1,0.1,0.1,0.1,0.1C93.9,126.8,93.9,126.7,93.8,126.7z"/>
					<path class="st2" d="M93.7,126.6L93.7,126.6C93.8,126.6,93.8,126.6,93.7,126.6z"/>
					<path class="st2" d="M93.3,126.1c0.1,0.1,0.3,0.2,0.1,0C93.3,126,93.4,126.1,93.3,126.1z"/>
					<path class="st2" d="M93.7,126.5l-0.1-0.1c0,0,0,0,0,0L93.7,126.5z"/>
					<polygon class="st2" points="93.8,126.6 93.7,126.5 93.8,126.6 					"/>
					<path class="st2" d="M94.3,127.3c0.1,0,0.1,0.1,0.2,0.2C94.5,127.4,94.4,127.3,94.3,127.3C94.3,127.2,94.3,127.2,94.3,127.3z"
						/>
					<path class="st2" d="M94.1,127L94.1,127C94.1,127,94.1,127,94.1,127z"/>
					<polygon class="st2" points="95.1,128.2 95.1,128.2 95.1,128.2 					"/>
					<path class="st2" d="M94.3,127.2c0-0.1-0.1-0.1-0.1-0.1C94.2,127.1,94.3,127.2,94.3,127.2C94.3,127.2,94.3,127.2,94.3,127.2z"
						/>
					<path class="st2" d="M94.7,127.7c0,0,0-0.1-0.1-0.1C94.7,127.6,94.7,127.7,94.7,127.7z"/>
					<path class="st2" d="M94.1,127L94.1,127C94.1,127,94.1,127,94.1,127z"/>
					<path class="st2" d="M94.1,127C94.1,127,94.2,127.1,94.1,127C94.2,127,94.1,127,94.1,127C94.1,127,94.1,127,94.1,127z"/>
					<path class="st2" d="M95.5,128.3c0,0-0.2-0.1-0.3-0.3c-0.1-0.1-0.2,0.1-0.1,0.2c0,0,0,0,0.2,0.1c0-0.1-0.2-0.4-0.1-0.3
						c0.2,0.2,0.1,0.2,0.2,0.3c0-0.1,0.2,0.2,0.3,0.1L95.5,128.3C95.5,128.3,95.6,128.3,95.5,128.3z"/>
					<path class="st2" d="M94.9,127.9L94.9,127.9c0,0,0,0.1,0.1,0.2c0.1,0.1,0.1,0.1,0.1,0.1L94.9,127.9L94.9,127.9z"/>
					<path class="st2" d="M94.7,127.6c0.1,0,0.2,0.1,0.2,0c-0.1-0.2-0.1-0.1-0.2-0.2C94.8,127.7,94.5,127.4,94.7,127.6
						c-0.1-0.1-0.1-0.1-0.1-0.1C94.6,127.5,94.6,127.5,94.7,127.6L94.7,127.6L94.7,127.6L94.7,127.6
						C94.6,127.6,94.6,127.6,94.7,127.6L94.7,127.6C94.6,127.6,94.7,127.6,94.7,127.6C94.7,127.7,94.7,127.6,94.7,127.6L94.7,127.6
						L94.7,127.6l0.2,0.3C94.8,127.8,94.8,127.7,94.7,127.6z"/>
					<path class="st2" d="M93.6,126.1C93.6,126.1,93.6,126.1,93.6,126.1C93.6,126.2,93.6,126.2,93.6,126.1z"/>
					<path class="st2" d="M93.7,126.3c0,0-0.1,0-0.1-0.1c0-0.1,0,0,0,0c0,0-0.1-0.1,0,0l0,0c0.1,0.1,0.2,0.3,0.2,0.3
						C93.7,126.4,93.7,126.4,93.7,126.3z"/>
					<path class="st2" d="M94.2,126.9l0.2,0.2l-0.1-0.1l0,0C94.2,126.9,94.2,126.9,94.2,126.9z"/>
					<polygon class="st2" points="95.1,128.2 95.1,128.2 95.2,128.3 					"/>
					<polygon class="st2" points="95.4,128.5 95.3,128.6 95.4,128.6 					"/>
					<path class="st2" d="M83.5,136.1L83.5,136.1C83.4,136.1,83.5,136.1,83.5,136.1z"/>
					<path class="st2" d="M83.9,136.6L83.9,136.6C83.9,136.5,83.9,136.5,83.9,136.6z"/>
					<path class="st2" d="M94.8,136.4c-0.1,0-0.3,0.1-0.2,0.1l0.1,0C94.7,136.5,94.8,136.5,94.8,136.4z"/>
					<path class="st2" d="M88.8,138.5L88.8,138.5c0.1,0,0.1,0,0.1,0C88.9,138.5,88.8,138.5,88.8,138.5z"/>
					<path class="st2" d="M88.7,138.7l-0.2,0C88.5,138.6,88.6,138.7,88.7,138.7z"/>
					<path class="st2" d="M81.5,133.2L81.5,133.2C81.5,133.2,81.5,133.2,81.5,133.2z"/>
					<path class="st2" d="M97.1,132c0,0.1,0,0.2,0,0.3C97.1,132.1,97.1,132,97.1,132z"/>
					<path class="st2" d="M84,136C84,135.9,83.9,135.9,84,136C84,136,84,136,84,136z"/>
					<path class="st2" d="M97.1,132.6C97.1,132.6,97.1,132.5,97.1,132.6c0-0.1,0-0.2,0-0.3C97.1,132.4,97.1,132.5,97.1,132.6z"/>
					<path class="st2" d="M79.5,120.7C79.5,120.7,79.5,120.7,79.5,120.7C79.5,120.6,79.5,120.6,79.5,120.7z"/>
					<path class="st2" d="M80.2,117c0,0,0,0.1,0,0.1C80.2,117.2,80.2,117.1,80.2,117z"/>
					<path class="st2" d="M96.2,129.8C96.2,129.8,96.2,129.8,96.2,129.8L96.2,129.8z"/>
					<path class="st2" d="M96.2,129.4C96.2,129.4,96.2,129.4,96.2,129.4C96.2,129.4,96.2,129.4,96.2,129.4z"/>
					<path class="st2" d="M97.3,133.4L97.3,133.4C97.3,133.4,97.3,133.4,97.3,133.4z"/>
					<path class="st2" d="M96.2,129.7C96.2,129.8,96.2,129.8,96.2,129.7C96.2,129.8,96.2,129.8,96.2,129.7z"/>
					<path class="st2" d="M96.2,129.7C96.1,129.7,96.1,129.7,96.2,129.7C96.1,129.7,96.1,129.7,96.2,129.7z"/>
					<path class="st2" d="M96.3,129.9c0,0,0-0.1-0.1-0.1C96.2,129.8,96.2,129.8,96.3,129.9C96.2,129.9,96.2,129.9,96.3,129.9z"/>
					<path class="st2" d="M80,127.4C80,127.4,80,127.4,80,127.4C79.9,127.4,79.9,127.4,80,127.4z"/>
					<polygon class="st2" points="93.1,137.8 93.1,137.8 93.1,137.8 					"/>
					<path class="st2" d="M92.9,138c0.1-0.1,0.2-0.1,0.3-0.1l-0.1-0.1C93,137.8,92.9,137.9,92.9,138z"/>
					<path class="st2" d="M82.5,134.9l0.1,0.2c-0.2-0.2-0.3-0.3-0.2-0.1c0.1,0,0.5,0.7,0.6,0.6l0.1,0.1c0,0,0,0-0.1-0.1
						c0.1,0.3,0.2,0.1,0.4,0.4c0.1,0.1,0.1,0.2,0,0.1l0.2,0.2c0.1,0.1,0,0.1,0,0c0.1,0.1,0.2,0.2,0.3,0.3l0,0c0.1,0,0.2,0.1,0.2,0.1
						c0.1,0.1,0,0,0,0l0.2,0.1c0,0.1-0.1,0-0.2-0.1c0.1,0.2,0.1,0.1,0.5,0.5l-0.2-0.1c0.1,0.1,0.2,0.2,0.4,0.4
						c0-0.1-0.3-0.4-0.1-0.3c0.1,0.1,0.1,0.1,0.2,0.2c0,0,0.1,0.1,0.2,0.2l0,0c0.2,0.1,0.2,0,0.3,0.1c0.2,0.1,0.2,0.2,0.2,0.2
						c0.3,0.2-0.2-0.2,0.2,0c0.2,0.1,0.4,0.2,0.7,0.3c0.2,0.1,0,0,0,0.1l0.2,0c0,0,0,0,0,0c0.1,0,0-0.1,0.2,0c0.1,0,0.4,0.2,0.7,0.2
						c0.1,0,0,0,0,0.1c0.4,0,0.3,0,0.6,0l0.3,0.1c-0.2-0.1,0.1-0.1,0.3-0.1c-0.1,0-0.1-0.1-0.2-0.1c0.1,0,0.2,0,0.3,0c0,0,0,0,0,0.1
						l0.1,0c0.1,0,0.1,0.1,0,0.1l-0.1,0c-0.1,0-0.2,0.1-0.2,0.1c0,0,0.1,0,0.1,0c0,0,0,0,0,0c0,0,0,0,0.1,0l0.1,0.1l0,0l0.4,0.1
						c0.3-0.1,0.6-0.2,1.1-0.3c-0.1,0.1,0,0.1,0,0.2c-0.1,0-0.4,0.1-0.6,0.1c0.1,0,0.1,0,0.1,0c0.2,0,0.3-0.1,0.5-0.1
						c0,0.1,0.1,0,0.2,0c-0.1-0.1,0.3-0.1,0.5-0.2c0,0,0,0.1-0.2,0.1c0.3,0,0.3-0.2,0.6-0.2c-0.1,0-0.1,0-0.1,0
						c0.1-0.1,0.4-0.1,0.4-0.1l-0.1,0c0.4-0.1,1.1-0.3,1.1-0.4c0,0,0,0.1,0,0.1c0.2-0.2,0.3-0.3,0.5-0.5c0,0.1,0.2,0.2,0,0.3
						c0.1,0,0.2-0.1,0.4-0.2c-0.1,0-0.2,0-0.1-0.1c0.2,0,0.2,0,0.4-0.1c-0.1,0,0-0.1,0.1-0.2c0,0,0.1,0.1,0,0.1l0.3-0.3
						c-0.1,0.1,0,0.1,0.1,0.1c0,0,0.3-0.1,0.4-0.2l-0.1,0c0.4-0.2,0.3-0.3,0.6-0.6c0,0,0,0.2,0.2,0.1c0.1-0.1,0.2-0.5,0.4-0.7l0.1,0
						c0.1-0.1,0.1-0.1,0.2-0.2c0,0.2-0.3,0.6-0.5,0.8c0.1-0.1,0.1,0,0.2-0.1c0.1,0-0.1,0.1-0.1,0.2l0.4-0.3c-0.1,0,0.3-0.3,0.2-0.4
						c-0.1,0.2-0.3,0.3-0.4,0.4c-0.1,0,0.1-0.3,0.4-0.6c0.1-0.1,0,0.1,0.1,0.1c0-0.1,0.2-0.3,0.2-0.3l-0.1,0.1
						c0.2-0.1,0.2-0.3,0.4-0.5c0.1-0.1,0.2-0.2,0.2-0.2c-0.1,0.1-0.4,0-0.4-0.1c0,0,0.3-0.3,0.3-0.4c0.1-0.1,0,0.3,0.1,0.2
						c0,0,0-0.1,0-0.1c0.1-0.1,0,0.1,0.1-0.1c0-0.1,0.1-0.4,0-0.1c0-0.2,0.1-0.2,0.1-0.4c-0.1,0.1-0.1-0.2-0.1-0.4c0,0,0,0,0.1,0
						c0.1-0.4,0.1-0.6,0.1-1c0,0,0-0.2,0.1-0.1c0-0.1,0-0.1-0.1-0.2c0-0.2,0,0.3,0.1,0.1c0,0-0.1-0.3-0.2-0.4c0,0.1,0.1,0.4,0.1,0.5
						c-0.1,0-0.2-0.3-0.3-0.6c-0.1-0.3,0-0.1,0-0.2c-0.2-0.5-0.3-0.4-0.4-0.8c0-0.2,0.1-0.1,0.1-0.1c0.1,0.2,0.1,0.4,0.2,0.5l0-0.2
						c0,0.1,0.1,0.2,0.1,0.3c0-0.2-0.3-0.9-0.5-1.3c-0.1-0.1-0.1-0.2-0.1-0.1l0.1,0.1c0,0.1-0.2-0.2-0.1,0c-0.1-0.2-0.3-0.3-0.4-0.5
						l0-0.1c0,0,0.1,0.2,0.1,0.2c-0.1-0.1-0.1-0.4-0.3-0.4l0.1,0.2c-0.1-0.1-0.3-0.3-0.4-0.5c0,0.1,0,0,0.1,0.2
						c0-0.2,0.3,0.5,0.3,0.2c0,0.2,0.1,0.3,0.2,0.5c0,0,0-0.1,0.1,0.1c0,0,0,0,0,0l0,0l0,0c0,0,0,0,0,0c0,0,0-0.1,0-0.1
						c0.1,0.1,0.2,0.3,0.3,0.4c0,0.1,0,0,0,0l0.1,0.1c0,0,0.1,0.3-0.1,0.1c0,0.1,0.1,0.1,0.1,0.2c0,0.1,0.1,0.3,0.2,0.4
						c0,0.1,0.1,0.2,0.1,0.2l0.1,0.3l0,0c0.1,0.3,0.2,0.7,0.2,1.1c0,0.1,0,0.2,0,0.4l0,0c0,0.2-0.1,0.4-0.1,0.5
						c-0.1,0.1-0.2,0.7-0.4,0.9l0,0c-0.1,0.2-0.2,0.3-0.3,0.5l0,0c-0.1,0.2-0.3,0.4-0.6,0.6c0,0,0.1-0.1,0.1-0.1
						c-0.3,0.2-0.5,0.6-0.9,0.8c-0.1,0.1-0.1,0.1-0.2,0.1c0,0,0,0,0,0l0,0c0,0-0.1,0-0.1,0c0,0,0.1,0,0.1,0c-0.1,0-0.1,0.1-0.2,0.2
						l-0.1,0c0,0,0,0,0,0c-0.1,0-0.1,0.1,0,0.1c0,0-0.1,0.1-0.1,0.1c-0.1,0-0.2,0.2-0.4,0.1c0,0.1-0.4,0.3-0.4,0.4c0,0,0,0,0,0
						c-0.1,0-0.2,0.1-0.3,0.1l-0.1,0l-0.2,0.2c-0.2,0-0.2,0-0.1-0.1c-0.3,0.2-0.3,0.1-0.5,0.3l0,0c-0.1,0-0.3,0.1-0.3,0.1
						c-0.2,0-1.2,0.4-1.8,0.4c0.1,0.1-0.3,0-0.3,0.1c0,0-0.1,0,0-0.1c-0.3,0-0.5,0-0.7,0.1c0,0,0.1,0,0-0.1c0,0-0.1,0-0.1,0
						c0,0,0,0,0.1,0c-0.3,0-0.4,0.1-0.4,0.2c-0.2,0-0.2,0-0.4,0c-0.1,0-0.1-0.1,0.1-0.1c-0.1,0-0.7-0.1-0.7-0.1c0,0-0.2,0-0.2,0
						c-0.2-0.1-0.3-0.1-0.5-0.1l0.1,0c-0.1,0.1-0.2,0-0.4-0.1l0,0c-0.4-0.2-0.2,0-0.6-0.3l0,0.1c-0.1,0.1-0.3-0.2-0.6-0.3l0.1,0.1
						c-0.1,0-0.3-0.3-0.4-0.4c0,0,0.1,0,0.1,0c-0.3-0.2-0.1,0-0.3-0.1c0-0.1,0.1,0,0-0.1c-0.1-0.1-0.5-0.2-0.7-0.5
						c0,0.1,0.1,0.1-0.1,0c-0.2-0.1-0.3-0.4-0.5-0.5c0,0,0,0,0,0c-0.1-0.1-0.4-0.3-0.5-0.4c0-0.2-0.7-0.7-0.5-0.8l-0.3-0.4l0,0
						c-0.2-0.3-0.2-0.3-0.3-0.4c0-0.1,0,0,0,0c-0.2-0.4-0.2-0.4-0.5-0.7l0-0.1c-0.1-0.1-0.2-0.6-0.4-1c0,0,0,0,0,0
						c-0.3-0.4-0.3-1.2-0.5-1.3l-0.1-0.3c0.1,0.4-0.1,0-0.1,0.1c-0.1-0.2-0.1-0.4,0-0.2l0,0c0.1,0-0.1-0.5-0.1-0.5
						c-0.2-0.8-0.3-1.6-0.5-2.4l-0.1,0.1l0-0.3c0-0.1,0-0.1,0.1,0.1c0-0.1-0.1-0.3-0.1-0.3c0-0.4,0.1,0.1,0.1,0l0-0.2l0,0
						c0-0.1-0.1-0.1-0.1-0.4c0-0.1,0-0.1,0-0.1c0,0,0,0,0-0.1l0-0.3l0,0.1c0-0.1,0-0.3-0.1-0.2c0.1-0.2-0.1-1.3-0.1-1.4
						c-0.1-0.2-0.1-0.4-0.1-0.7c0,0.1-0.1,0.1-0.1-0.1c0.1,0.1,0-0.4,0.1-0.6c-0.1,0.2,0-0.6-0.1-0.4c0-0.2,0,0,0.1-0.2
						c0-0.4,0-1,0-1.5c0,0,0,0.1-0.1,0l0.1-0.3c0-0.1-0.1-0.1,0-0.3c0,0,0,0.1,0,0c0.1-1.1,0.1-2.2,0.4-3.3c-0.1,0.1,0,0,0-0.1
						c0,0.1,0,0-0.1,0l0.1-0.5c-0.1-0.1,0.1-0.5,0-0.5l0,0.1c0-0.2-0.2,0.2-0.3,0.2c0.1,0.2-0.2,0.6-0.1,0.9c0,0.1,0-0.1-0.1,0
						c0,0.1,0,0.2,0,0.4l0,0c0,0.6-0.1,0.8-0.2,1.5l0.1,0c0,0.1,0,0.2,0,0.2c0.1,0.2,0-0.4,0.1-0.2c-0.1,0.2-0.1,1-0.2,1.1
						c0,0.2,0.1-0.1,0,0.2l0,0.1l0,0.1c0,0.1-0.1,0.2-0.1,0.2c0,0,0-0.1,0-0.1c0,0.2,0,0.5,0,0.6l0-0.2c0,0.6,0,1.3,0,1.9l0,0
						c0.1,0.4,0,0.3,0,0.8l0,0c0,0.1,0,0.2,0,0.3c0-0.1,0,0.2-0.1,0.1c0.1,0.5,0,0.2,0.2,0.5l0,0.1c0,0.1,0.1,0.1,0.1,0.3
						c0-0.2,0,0.2-0.1-0.1c-0.1,0.5,0.1,0.7,0.1,1c0.1,0.2,0-0.4,0-0.3c0-0.1,0.1,0.2,0.1,0.3c0,0.2-0.1,0.3-0.1,0.7c0,0,0,0,0-0.1
						c0,0.2,0.1,0.3,0.1,0.5c0.1,0.1,0,0.2,0.1,0.3l-0.1-0.4c0.1,0.2,0.2,0.4,0.2,0.7c0,0-0.1-0.1-0.1-0.2c0,0.1,0,0.2,0,0.3
						c-0.1,0-0.1-0.4-0.2-0.6c0,0.1,0.1,0.4,0,0.3c0.1,0.1,0,0.4,0.2,0.6l-0.1,0c0,0,0.1,0.1,0.1,0.2l-0.1-0.1
						c0.1,0.2,0,0.4,0.1,0.6c-0.1-0.4,0-0.1,0-0.3c0.2,0.5-0.1,0.3,0.1,0.9c0-0.1,0-0.3,0-0.2c0,0.1,0,0.3,0,0.3
						c0.1,0.4,0-0.1,0.1,0.1c0,0.1,0.1,0.2,0.1,0.4l0,0c0.1,0.4,0.1,0.1,0.2,0.5l-0.1-0.1l0.1,0.2l-0.1,0c0.1,0.2,0.1,0.3,0.2,0.5
						c0-0.1,0.1,0,0.2,0.2c0,0.1-0.1-0.1,0,0.2c0-0.1-0.1-0.1-0.1-0.2c0,0,0-0.1-0.1-0.1c0,0.2,0.1,0.4,0.2,0.5c0,0,0-0.1,0-0.1
						l0.2,0.4c0,0.1,0,0-0.1,0c0,0.1,0.1,0.1,0.1,0.2c0,0-0.1,0-0.2-0.2l0.2,0.4c0,0,0,0.2,0,0.2c0.1,0.2,0.3,0.5,0.4,0.7
						c0,0,0,0,0.1,0.1c0.1,0.3,0.2,0.5,0.4,0.8l0,0.2c0.1,0.2,0-0.3,0.2,0.1c0.2,0.2,0,0.1,0,0.2c0.1,0.1,0.3,0.3,0.4,0.6
						C82.6,135,82.6,134.9,82.5,134.9z M84.7,137.2c-0.1,0-0.2-0.1-0.2-0.1C84.6,137.1,84.6,137.1,84.7,137.2z M89.2,138.6
						c0,0-0.1,0-0.2,0C89.1,138.6,89.2,138.6,89.2,138.6z M96.6,130.6L96.6,130.6C96.7,130.7,96.7,130.7,96.6,130.6z M96.5,130.4
						C96.5,130.3,96.5,130.3,96.5,130.4c0,0,0,0.1,0,0.1C96.6,130.5,96.6,130.4,96.5,130.4z M80.2,126.5L80.2,126.5
						C80.1,126.5,80.1,126.5,80.2,126.5z"/>
					<path class="st2" d="M88.7,138.7C88.7,138.6,88.7,138.6,88.7,138.7C88.6,138.6,88.6,138.6,88.7,138.7z"/>
					<path class="st2" d="M81.5,133.2L81.5,133.2C81.5,133.2,81.5,133.2,81.5,133.2L81.5,133.2z"/>
					<path class="st2" d="M97.2,134.5C97.1,134.6,97.1,134.6,97.2,134.5C97.1,134.6,97.1,134.6,97.2,134.5z"/>
					<path class="st2" d="M95.8,129.1l0.1,0.1C95.8,129.2,95.8,129.2,95.8,129.1C95.8,129.1,95.8,129.2,95.8,129.1z"/>
					<path class="st2" d="M95.1,127.7C95,127.7,95.1,127.7,95.1,127.7L95.1,127.7C95.1,127.8,95.1,127.8,95.1,127.7z"/>
					<path class="st2" d="M95.8,128.9c0,0,0-0.1-0.1-0.2l0,0C95.6,128.7,95.7,128.8,95.8,128.9z"/>
					<path class="st2" d="M95.6,128.7C95.6,128.6,95.6,128.6,95.6,128.7C95.6,128.6,95.6,128.6,95.6,128.7z"/>
					<path class="st2" d="M96.4,130.1C96.3,130,96.3,130.1,96.4,130.1C96.2,130,96.5,130.3,96.4,130.1z"/>
					<polygon class="st2" points="95.8,128.8 95.8,128.8 95.9,128.9 					"/>
					<path class="st2" d="M96.3,129.6l-0.1-0.2c0,0,0,0,0,0C96.3,129.5,96.3,129.6,96.3,129.6z"/>
					<path class="st2" d="M96.2,129.4c0-0.1-0.1-0.1-0.1-0.1C96.1,129.3,96.2,129.3,96.2,129.4z"/>
					<path class="st2" d="M96,129L96,129l0.1,0.2C96.1,129.1,96,129,96,129z"/>
					<path class="st2" d="M97.2,131.6l0.1,0.2C97.2,131.8,97.2,131.8,97.2,131.6C97.2,131.6,97.2,131.6,97.2,131.6z"/>
					<path class="st2" d="M97.1,130.9c0,0.1,0,0.1,0,0.1L97.1,130.9L97.1,130.9z"/>
					<path class="st2" d="M97.3,131.5C97.3,131.5,97.4,131.8,97.3,131.5C97.3,131.5,97.3,131.3,97.3,131.5z"/>
					<polygon class="st2" points="96.9,134.8 96.9,134.7 96.8,134.7 					"/>
					<path class="st2" d="M94.9,137c0.2-0.1,0-0.1,0.2-0.2c0-0.1-0.2,0.1-0.1,0C94.9,136.9,94.8,137,94.9,137z"/>
					<path class="st2" d="M95,136.8C95.1,136.8,95.1,136.8,95,136.8C95.1,136.8,95,136.8,95,136.8z"/>
					<polygon class="st2" points="80.4,116.4 80.4,116.3 80.4,116.4 					"/>
					<path class="st2" d="M80.3,116.1L80.3,116.1l0-0.1C80.3,116,80.3,116.1,80.3,116.1z"/>
					<path class="st2" d="M85,137.6L85,137.6c0,0,0-0.1-0.1-0.1C84.9,137.5,85,137.5,85,137.6z"/>
					<polygon class="st2" points="83.3,136 83.3,136 83.3,135.9 					"/>
					<path class="st2" d="M82.1,134.4c0,0.1,0.1,0.1,0.1,0.2C82.1,134.5,82.1,134.4,82.1,134.4z"/>
				</g>
			</g>
		</g>
	</g>
</g>
<g>
	<g>
		<g>
			<g>
				<g>
					<path class="st2" d="M81.4,133.9C81.5,133.9,81.4,133.8,81.4,133.9C81.4,133.9,81.4,133.9,81.4,133.9z"/>
					<polygon class="st2" points="81,134.2 81,134.2 81,134.2 					"/>
					<path class="st2" d="M80.6,134.4c0.1,0,0.2-0.1,0.2-0.1l0,0l0-0.1C80.8,134.3,80.7,134.4,80.6,134.4z"/>
					<path class="st2" d="M80.3,134.4C80.3,134.4,80.2,134.4,80.3,134.4C80.3,134.4,80.3,134.3,80.3,134.4
						C80.3,134.4,80.3,134.4,80.3,134.4z"/>
					<path class="st2" d="M80.3,134.3C80.4,134.3,80.3,134.3,80.3,134.3L80.3,134.3z"/>
					<path class="st2" d="M80.1,134.5L80.1,134.5C80.2,134.4,80.1,134.4,80.1,134.5C80.1,134.4,80.1,134.4,80.1,134.5z"/>
					<path class="st2" d="M80.1,134.5L80.1,134.5C80.1,134.5,80.1,134.5,80.1,134.5z"/>
					<path class="st2" d="M80.2,134.5L80.2,134.5C80.1,134.5,80.1,134.5,80.2,134.5C80.1,134.5,80.2,134.5,80.2,134.5z"/>
					<path class="st2" d="M80.2,134.5C80.3,134.5,80.3,134.4,80.2,134.5C80.4,134.4,80.3,134.4,80.2,134.5z"/>
					<path class="st2" d="M80.6,134.5L80.6,134.5L80.6,134.5C80.7,134.5,80.6,134.5,80.6,134.5z"/>
					<path class="st2" d="M79.7,134.6C79.7,134.6,79.8,134.6,79.7,134.6L79.7,134.6C79.8,134.6,79.7,134.6,79.7,134.6z"/>
					<path class="st2" d="M79.8,134.6L79.8,134.6C79.8,134.6,79.8,134.6,79.8,134.6z"/>
					<polygon class="st2" points="80.1,134.6 80.2,134.5 80.1,134.6 					"/>
					<polygon class="st2" points="79.5,134.7 79.5,134.6 79.5,134.7 					"/>
					<path class="st2" d="M79.3,134.7C79.3,134.7,79.3,134.7,79.3,134.7c-0.1,0-0.1,0-0.1,0C79.2,134.8,79.2,134.7,79.3,134.7z"/>
					<path class="st2" d="M79.1,134.8C79.1,134.8,79.2,134.8,79.1,134.8C79.2,134.8,79.1,134.8,79.1,134.8z"/>
					<path class="st2" d="M79.6,134.7C79.6,134.7,79.6,134.7,79.6,134.7L79.6,134.7L79.6,134.7z"/>
					<path class="st2" d="M79.6,134.7L79.6,134.7C79.5,134.7,79.5,134.7,79.6,134.7C79.5,134.7,79.5,134.7,79.6,134.7z"/>
					<path class="st2" d="M79.6,134.7L79.6,134.7C79.6,134.7,79.6,134.7,79.6,134.7z"/>
					<path class="st2" d="M79.9,134.6C79.9,134.7,79.8,134.7,79.9,134.6C79.9,134.7,79.9,134.7,79.9,134.6z"/>
					<path class="st2" d="M79.7,134.7L79.7,134.7C79.7,134.7,79.7,134.7,79.7,134.7L79.7,134.7z"/>
					<polygon class="st2" points="79.6,134.8 79.7,134.7 79.6,134.8 					"/>
					<path class="st2" d="M79.3,134.8C79.2,134.9,79.2,134.9,79.3,134.8C79.2,134.9,79.3,134.9,79.3,134.8
						C79.3,134.8,79.3,134.8,79.3,134.8z"/>
					<path class="st2" d="M79.4,134.8L79.4,134.8C79.4,134.8,79.4,134.8,79.4,134.8z"/>
					<polygon class="st2" points="78.8,135 78.8,135 78.8,135 					"/>
					<path class="st2" d="M79.3,134.9C79.3,134.9,79.4,134.8,79.3,134.9C79.3,134.8,79.3,134.8,79.3,134.9
						C79.3,134.9,79.3,134.9,79.3,134.9z"/>
					<path class="st2" d="M79,134.9C79,134.9,79.1,134.9,79,134.9C79.1,134.9,79,134.9,79,134.9z"/>
					<path class="st2" d="M79.4,134.8L79.4,134.8C79.4,134.8,79.4,134.8,79.4,134.8z"/>
					<path class="st2" d="M79.4,134.8C79.4,134.8,79.4,134.8,79.4,134.8C79.4,134.8,79.4,134.8,79.4,134.8
						C79.4,134.8,79.4,134.8,79.4,134.8z"/>
					<path class="st2" d="M78.7,135.3c0,0,0.1-0.1,0.2-0.1c0.1-0.1,0-0.2-0.1-0.2c0,0,0,0-0.1,0.1c0,0,0.2,0,0.1,0.1
						c-0.1,0-0.1,0-0.1,0C78.8,135.2,78.6,135.3,78.7,135.3L78.7,135.3C78.7,135.3,78.7,135.3,78.7,135.3z"/>
					<path class="st2" d="M78.9,135L78.9,135C78.9,135,78.9,135,78.9,135c-0.1,0-0.1,0-0.1,0L78.9,135L78.9,135z"/>
					<path class="st2" d="M79.1,134.9c0,0-0.1,0.1,0,0.1C79.2,135,79.1,135,79.1,134.9C79,135,79.2,134.9,79.1,134.9
						C79.1,134.9,79.1,134.9,79.1,134.9C79.1,134.9,79.1,134.9,79.1,134.9L79.1,134.9L79.1,134.9L79.1,134.9
						C79.1,134.9,79.1,134.9,79.1,134.9L79.1,134.9L79.1,134.9C79,134.9,79.1,134.9,79.1,134.9L79.1,134.9L79.1,134.9l-0.1,0
						C79,135,79,134.9,79.1,134.9z"/>
					<path class="st2" d="M79.9,134.9C79.9,134.9,79.9,134.8,79.9,134.9C79.9,134.9,79.8,134.9,79.9,134.9z"/>
					<path class="st2" d="M79.8,134.9C79.8,134.8,79.8,134.8,79.8,134.9C79.9,134.8,79.9,134.8,79.8,134.9
						C79.9,134.8,79.9,134.8,79.8,134.9L79.8,134.9c0,0-0.1-0.1-0.1-0.1C79.7,134.8,79.7,134.8,79.8,134.9z"/>
					<path class="st2" d="M79.4,134.9l-0.1,0.1L79.4,134.9L79.4,134.9C79.5,134.9,79.4,134.9,79.4,134.9z"/>
					<polygon class="st2" points="78.8,135 78.8,134.9 78.7,135 					"/>
					<polygon class="st2" points="78.6,135 78.6,135 78.6,135 					"/>
					<path class="st2" d="M72,130.8L72,130.8C72,130.8,72,130.8,72,130.8z"/>
					<path class="st2" d="M72.1,131.1L72.1,131.1C72.1,131,72.1,131,72.1,131.1z"/>
					<path class="st2" d="M74.9,134.9C74.8,134.9,74.8,134.8,74.9,134.9L74.9,134.9C74.8,134.9,74.8,134.9,74.9,134.9z"/>
					<polygon class="st2" points="72.9,133.1 72.9,133.1 73,133.2 					"/>
					<path class="st2" d="M72.8,133.2L72.8,133.2C72.8,133.1,72.8,133.1,72.8,133.2z"/>
					<path class="st2" d="M71.8,129.3L71.8,129.3C71.8,129.3,71.8,129.3,71.8,129.3z"/>
					<path class="st2" d="M77,135.3c0,0-0.1,0-0.1,0C77,135.3,77,135.4,77,135.3z"/>
					<path class="st2" d="M72.5,130.8C72.5,130.8,72.5,130.8,72.5,130.8C72.5,130.8,72.5,130.8,72.5,130.8z"/>
					<path class="st2" d="M76.8,135.3C76.8,135.3,76.8,135.3,76.8,135.3c0.1,0,0.1,0,0.1,0C76.9,135.3,76.8,135.3,76.8,135.3z"/>
					<path class="st2" d="M72.1,123.9C72.1,123.9,72.1,123.9,72.1,123.9C72.1,123.9,72.1,123.9,72.1,123.9z"/>
					<path class="st2" d="M72.8,122.5C72.8,122.5,72.8,122.5,72.8,122.5C72.8,122.5,72.8,122.5,72.8,122.5z"/>
					<path class="st2" d="M78,135.2C78,135.2,78,135.2,78,135.2L78,135.2z"/>
					<path class="st2" d="M78.2,135.3C78.2,135.3,78.2,135.3,78.2,135.3C78.2,135.3,78.2,135.3,78.2,135.3z"/>
					<path class="st2" d="M76.4,135.6L76.4,135.6C76.4,135.6,76.4,135.6,76.4,135.6z"/>
					<path class="st2" d="M78,135.2L78,135.2C78,135.2,78,135.2,78,135.2z"/>
					<path class="st2" d="M78,135.2C78,135.2,78,135.2,78,135.2C78.1,135.2,78,135.2,78,135.2z"/>
					<path class="st2" d="M77.9,135.2C78,135.2,78,135.2,77.9,135.2C78,135.2,78,135.2,77.9,135.2C78,135.2,78,135.2,77.9,135.2z"/>
					<path class="st2" d="M72,126.8L72,126.8C71.9,126.8,71.9,126.8,72,126.8z"/>
					<polygon class="st2" points="73.9,134.8 73.9,134.8 73.9,134.8 					"/>
					<path class="st2" d="M73.8,134.7c0.1,0,0.1,0,0.1,0.1l0.1-0.1L73.8,134.7z"/>
					<path class="st2" d="M71.9,130.1L71.9,130.1c-0.1,0-0.1-0.1-0.1,0c0.1,0,0.1,0.3,0.2,0.3l0,0.1c0,0,0,0,0,0
						c0,0.1,0.1,0.1,0.1,0.2c0,0.1,0,0.1,0,0.1l0.1,0.1c0,0,0,0,0,0l0,0.2l0,0c0,0,0.1,0.1,0.1,0.1c0,0,0,0,0,0l0,0.1
						c0,0-0.1,0-0.1-0.1c-0.1,0.1,0,0.1,0,0.3l0-0.1c-0.1,0.1,0,0.1,0,0.3c0,0,0.1-0.2,0.1-0.1c0,0,0,0.1,0,0.1c0,0,0,0.1,0,0.1
						l-0.1,0c0,0.1,0.1,0.1,0.1,0.1c0,0.1,0,0.1-0.1,0.1c0,0.1,0.1-0.1,0.1,0c0,0.1,0.1,0.2,0.1,0.3c0,0.1,0,0-0.1,0l0.1,0.1
						c0,0,0,0,0,0c0,0,0.1,0,0.1,0.1c0.1,0,0,0.2,0.1,0.3c0,0,0,0-0.1,0c0.1,0.1,0.1,0.1,0.2,0.2l0,0.1c0-0.1,0.1,0,0.2,0
						c0,0,0-0.1,0-0.1l0.1,0.1c0,0,0,0-0.1,0l0,0c0,0.1,0,0-0.1,0l0-0.1c0,0-0.1,0-0.1,0c0,0,0,0,0,0c0,0,0,0,0,0c0,0,0,0,0,0
						l-0.1,0.1l0,0c0,0.1,0,0.1,0,0.2c0.1,0.1,0.3,0.1,0.4,0.3c-0.1,0-0.1,0-0.1,0.1c0-0.1-0.1-0.1-0.2-0.2c0,0.1,0,0.1,0,0l0.2,0.1
						c0,0,0,0.1,0,0.1c0.1-0.1,0.1,0.1,0.2,0.1c0,0-0.1,0-0.1-0.1c0,0.1,0.2,0,0.2,0.2c0,0,0,0,0,0c0.1,0,0.1,0.1,0.1,0.1l0,0
						c0.1,0.1,0.3,0.4,0.4,0.3c0,0-0.1,0.1-0.1,0.1c0.1,0,0.3,0,0.4,0c-0.1,0-0.1,0.2-0.2,0.2c0,0,0,0.1,0.1,0.1c0,0,0-0.1,0.1-0.1
						c0,0.1,0,0.1,0.1,0.2c0,0,0.1-0.1,0.1-0.1c0,0-0.1,0.1-0.1,0.1l0.2,0c0,0-0.1,0.1,0,0.1c0,0,0.1,0.1,0.2,0.1l0-0.1
						c0.1,0.1,0.2,0,0.4,0c0,0-0.1,0.1,0,0.2c0.1,0,0.3-0.2,0.4-0.2l0,0l0.1,0c-0.1,0.1-0.3,0.1-0.5,0.2c0,0.1,0,0,0.1,0.1
						c0,0-0.1,0-0.1,0l0.2,0.1c0-0.1,0.2,0,0.2-0.1c-0.1,0-0.2,0-0.3,0c0-0.1,0.2-0.1,0.3-0.1c0,0-0.1,0.1-0.1,0.1c0,0,0.2,0,0.2,0
						l-0.1,0c0.1,0,0.2,0,0.3,0c0,0,0.1,0.1,0.1,0.1c0-0.1,0-0.3,0-0.4c0,0,0.2,0.1,0.2,0.2c0,0.1-0.1,0.1-0.1,0.2c0,0,0,0,0.1,0
						c0,0,0,0.1,0.1,0.1c0-0.1,0.2,0,0-0.1c0.1,0,0.1,0,0.2,0c0,0,0.1-0.1,0.2-0.2c0,0,0,0,0,0.1c0.2,0,0.3,0.1,0.4,0
						c0,0,0.1,0,0.1,0.1c0,0,0,0,0.1,0c0.1,0.1-0.1,0,0,0.1c0,0,0.1-0.1,0.2-0.1c0-0.1-0.2,0-0.2,0c0-0.1,0.1-0.2,0.3-0.2
						c0.1,0,0.1,0.1,0.1,0c0.2,0,0.2-0.2,0.4-0.1c0.1,0,0,0.1,0,0.1c-0.1,0-0.2,0-0.2,0l0.1,0c0,0-0.1,0.1-0.1,0
						c0.1,0,0.4-0.1,0.6,0c0,0,0.1-0.1,0-0.1l-0.1,0c-0.1,0,0.1-0.1,0-0.1c0.1,0,0.1-0.1,0.3-0.1l0,0.1c0,0-0.1,0-0.1,0
						c0,0,0.2,0.1,0.2,0l-0.1,0c0.1-0.1,0.1-0.1,0.2-0.2c-0.1,0,0,0-0.1,0c0.1,0.1-0.2,0.1-0.1,0.1c-0.1-0.1-0.1,0-0.2-0.1
						c0,0,0,0,0,0c0,0,0,0,0,0l0,0l0,0c0,0,0,0,0,0c0,0,0,0,0,0c0,0.1-0.2,0.1-0.2,0.1c0,0,0,0,0,0l-0.1,0c0,0-0.1-0.1,0-0.1l-0.1,0
						c-0.1,0-0.1,0-0.2,0c0,0-0.1,0.1-0.1,0l-0.2,0l0,0c-0.2,0-0.3,0.1-0.5,0c-0.1,0-0.1,0-0.2,0l0,0c-0.1,0-0.2-0.1-0.2,0
						c-0.1-0.1-0.3,0-0.4-0.1l0,0c-0.1,0-0.1,0-0.2,0l0,0c-0.1,0-0.2-0.1-0.3-0.1c0,0,0,0,0.1,0c-0.1-0.1-0.3-0.1-0.4-0.2
						c0,0-0.1,0-0.1,0l0,0l0,0l0,0c0,0,0,0,0,0c0,0-0.1,0-0.1,0l0-0.1c0,0,0,0,0,0c0,0,0,0,0,0c0,0,0,0-0.1,0c0-0.1-0.1,0-0.1-0.1
						c0,0-0.2-0.1-0.3,0c0,0,0,0,0,0c0,0-0.1-0.1-0.1-0.1l0-0.1l-0.1,0c0-0.1,0-0.1,0.1-0.1c-0.2,0-0.1-0.1-0.2-0.1l0,0
						c0,0-0.1,0-0.1-0.1c0-0.1-0.3-0.4-0.4-0.7c-0.1,0.1,0-0.1-0.1-0.1c0,0,0-0.1,0.1,0c-0.1-0.1-0.1-0.2-0.2-0.2c0,0,0.1,0,0.1,0
						c0,0,0,0,0,0c0,0,0,0,0.1,0c-0.1-0.1-0.1-0.1-0.2-0.1c0-0.1,0-0.1-0.1-0.1c0,0,0-0.1,0.1,0c0,0-0.1-0.3-0.1-0.3
						c0,0,0-0.1,0-0.1c0-0.1,0-0.1-0.1-0.2l0,0c-0.1,0,0-0.1-0.1-0.2l0,0c0-0.2-0.1-0.1-0.1-0.3l0,0c-0.1,0,0-0.2-0.1-0.3l0,0
						c0-0.1,0.1-0.2,0.1-0.3c0,0,0,0,0,0c0-0.2-0.1,0-0.1-0.1c0,0,0.1,0,0.1-0.1c0,0-0.2-0.2-0.1-0.3c0,0,0,0.1-0.1,0
						c0-0.1,0.1-0.2,0-0.3c0,0,0,0,0,0c0-0.1-0.1-0.2-0.1-0.2c0.2-0.1-0.1-0.4,0-0.4l0-0.2l0,0c0-0.1,0-0.2-0.1-0.2c0,0,0,0,0,0
						c0-0.2,0-0.2-0.1-0.4l0,0c0,0,0.1-0.3,0-0.5c0,0,0,0,0,0c-0.1-0.2,0.1-0.5-0.1-0.6l0-0.1c0,0.2-0.1,0-0.1,0
						c0-0.1,0.1-0.2,0.1-0.1l0,0c0.1,0,0-0.2,0.1-0.2c0-0.4,0.1-0.7,0.1-1l-0.1,0l0-0.1c0,0,0.1,0,0.1,0c0,0,0-0.1,0-0.1
						c0-0.2,0.1,0.1,0.1,0l0-0.1l0,0c0-0.1-0.1-0.1,0-0.2c0-0.1,0,0,0.1-0.1c0,0,0,0,0,0l0-0.1l-0.1,0.1c0-0.1,0-0.1-0.1-0.1
						c0.1-0.1,0.1-0.5,0.1-0.6c0-0.1,0-0.2,0-0.3c0,0-0.1,0-0.1-0.1c0.1,0,0.1-0.2,0.2-0.2c-0.1,0.1,0-0.3-0.1-0.2
						c0-0.1,0.1,0,0.1-0.1c0-0.2,0.1-0.4,0.1-0.6c0,0,0,0-0.1,0l0.1-0.1c0,0-0.1-0.1,0-0.1c0,0,0,0,0,0c0.1-0.4,0.1-0.9,0.3-1.4
						c0,0.1,0,0,0,0c0,0,0,0-0.1,0l0.1-0.2c-0.1,0,0-0.2,0-0.2l0,0.1c-0.1-0.1-0.2,0.1-0.3,0.1c0.1,0.1-0.2,0.2-0.1,0.4
						c0,0,0,0-0.1,0c0,0,0,0.1,0,0.2l0,0c0,0.2-0.1,0.3-0.2,0.6l0,0c0,0.1,0,0.1,0,0.1c0.1,0.1,0-0.2,0.1-0.1
						c-0.1,0.1-0.1,0.4-0.2,0.4c0,0.1,0.1,0,0,0.1l0,0l0,0c0,0.1-0.1,0.1-0.1,0.1c0,0,0,0,0-0.1c0,0.1,0,0.2,0,0.2l0-0.1
						c0,0.2-0.1,0.5,0,0.8l0,0c0,0.2,0,0.1,0,0.3l0,0c0,0,0,0.1,0,0.1c0-0.1-0.1,0.1-0.1,0c0,0.2,0,0.1,0.1,0.2l0,0c0,0,0,0.1,0,0.2
						c0-0.1-0.1,0.1-0.1,0c-0.1,0.2,0.1,0.3-0.1,0.4C72,126.3,72,126,72,126c0,0,0.1,0.1,0.1,0.1c0,0.1-0.1,0.1-0.1,0.3c0,0,0,0,0,0
						c0,0.1,0,0.1,0,0.2c0.1,0,0,0.1,0.1,0.1l0-0.2c0,0.1,0.1,0.2,0.1,0.3c0,0,0-0.1,0-0.1c0,0,0,0.1,0,0.1c-0.1,0,0-0.2-0.1-0.3
						c0,0,0,0.2,0,0.1c0.1,0.1,0,0.2,0.1,0.3l0,0c0,0,0,0.1,0,0.1l-0.1-0.1c0,0.1-0.1,0.2,0,0.3c0-0.2,0.1,0,0.1-0.1
						c0.1,0.2-0.1,0.1-0.1,0.4c0,0,0-0.1,0.1-0.1c0,0,0,0.1-0.1,0.1c0,0.2,0,0,0.1,0c-0.1,0.1,0,0.1,0,0.2l0,0
						c0,0.2,0.1,0.1,0.1,0.2l-0.1-0.1l0,0.1l-0.1,0c0,0.1,0,0.1,0,0.2c0,0,0.1,0,0.1,0.1c0,0.1,0,0,0,0.1c0,0-0.1-0.1,0-0.1
						c0,0,0,0,0,0c0,0.1,0,0.2,0,0.2c0,0,0,0,0,0l0.1,0.2c0,0,0,0,0,0c0,0,0,0.1,0,0.1c0,0-0.1,0-0.1-0.1l0,0.2c0,0,0,0.1-0.1,0.1
						c0,0.1,0.1,0.2,0.1,0.4c0,0,0,0,0,0c0,0.1,0,0.2,0,0.4l-0.1,0.1c0,0.1,0.1-0.1,0.1,0.1c0,0.1-0.1,0.1-0.1,0.1
						c0,0.1,0.1,0.2,0.1,0.3C71.9,130.2,71.9,130.2,71.9,130.1z M72.2,131.5C72.2,131.4,72.1,131.4,72.2,131.5
						C72.2,131.4,72.2,131.4,72.2,131.5z M72.9,133.3C72.9,133.3,72.9,133.3,72.9,133.3C72.9,133.3,72.9,133.3,72.9,133.3z
						 M77.6,135.3L77.6,135.3C77.6,135.3,77.6,135.3,77.6,135.3z M77.7,135.3C77.7,135.3,77.7,135.3,77.7,135.3
						C77.7,135.3,77.7,135.3,77.7,135.3C77.7,135.3,77.7,135.3,77.7,135.3z M72.3,126.5L72.3,126.5
						C72.3,126.4,72.3,126.4,72.3,126.5z"/>
					<path class="st2" d="M72.8,133.2C72.8,133.1,72.8,133.1,72.8,133.2C72.8,133.1,72.8,133.1,72.8,133.2z"/>
					<polygon class="st2" points="71.8,129.3 71.8,129.3 71.8,129.3 					"/>
					<path class="st2" d="M75.9,135.7C75.9,135.7,75.9,135.7,75.9,135.7C75.9,135.7,75.9,135.7,75.9,135.7z"/>
					<path class="st2" d="M78.3,135.1C78.3,135.1,78.3,135.1,78.3,135.1C78.3,135.1,78.3,135.1,78.3,135.1
						C78.3,135.1,78.3,135.1,78.3,135.1z"/>
					<path class="st2" d="M79,135.2C79,135.2,79,135.2,79,135.2L79,135.2C79,135.2,79,135.2,79,135.2z"/>
					<path class="st2" d="M78.4,135.2c0,0,0.1,0,0.1,0C78.5,135.2,78.5,135.2,78.4,135.2C78.5,135.2,78.5,135.2,78.4,135.2z"/>
					<path class="st2" d="M78.5,135.2C78.6,135.2,78.6,135.2,78.5,135.2C78.6,135.2,78.6,135.2,78.5,135.2z"/>
					<path class="st2" d="M77.9,135.2C77.9,135.2,77.9,135.2,77.9,135.2C77.9,135.1,77.8,135.3,77.9,135.2z"/>
					<polygon class="st2" points="78.5,135.3 78.5,135.3 78.4,135.3 					"/>
					<path class="st2" d="M78.1,135.4L78.1,135.4c0.1,0,0.1,0,0.1,0C78.1,135.4,78.1,135.4,78.1,135.4z"/>
					<path class="st2" d="M78.2,135.4C78.2,135.4,78.2,135.4,78.2,135.4C78.2,135.4,78.2,135.4,78.2,135.4z"/>
					<path class="st2" d="M78.4,135.4L78.4,135.4L78.4,135.4C78.3,135.4,78.4,135.4,78.4,135.4z"/>
					<path class="st2" d="M77.2,135.5L77.2,135.5C77.1,135.6,77.1,135.6,77.2,135.5C77.2,135.5,77.2,135.5,77.2,135.5z"/>
					<path class="st2" d="M77.5,135.6C77.5,135.6,77.5,135.6,77.5,135.6L77.5,135.6L77.5,135.6z"/>
					<path class="st2" d="M77.2,135.7C77.2,135.7,77.1,135.7,77.2,135.7C77.2,135.7,77.3,135.7,77.2,135.7z"/>
					<polygon class="st2" points="75.8,135.5 75.8,135.6 75.9,135.5 					"/>
					<path class="st2" d="M74.5,135.3c0.1,0.1,0.1,0,0.1,0c0,0-0.1-0.1,0-0.1C74.6,135.3,74.5,135.3,74.5,135.3z"/>
					<path class="st2" d="M74.6,135.3C74.7,135.3,74.7,135.3,74.6,135.3C74.7,135.3,74.6,135.3,74.6,135.3z"/>
					<polygon class="st2" points="72.9,122.2 72.9,122.2 72.9,122.2 					"/>
					<path class="st2" d="M72.8,122.1L72.8,122.1L72.8,122.1C72.8,122.1,72.8,122.1,72.8,122.1z"/>
					<path class="st2" d="M72.1,131.7L72.1,131.7C72.1,131.7,72.1,131.6,72.1,131.7L72.1,131.7z"/>
					<polygon class="st2" points="72,130.7 72,130.7 72,130.7 					"/>
					<path class="st2" d="M71.8,129.9c0,0,0,0.1,0,0.1C71.8,129.9,71.8,129.9,71.8,129.9z"/>
				</g>
			</g>
		</g>
	</g>
</g>
<g>
	<g>
		<path class="st3" d="M118.5,109.5c1.6-0.7,7.9-4.4,4.4-0.6c-2.4,2.6-4.8,5-7,7.8c-0.1,0.1,0.2,0,0.3,0c2.8-3.1,6.1-5.3,9.9-7.2
			c4.3-2.1,2.1-0.8-0.6,1.3c-4.1,3.2-7.5,7-10.5,11.2c0,0.1,0.2,0,0.3,0c3.1-2.4,6.3-4.8,9.4-7.2c1.6-1.2,3.1-2.6,4.8-3.7
			c1.2-0.8,5-3.7,2.5-0.6c-4.5,5.7-10.3,9.9-15.6,14.6c-0.1,0.1,0.2,0,0.2,0c3.1-1.4,6.1-3,8.9-4.9c2.6-1.8,4.8-4.2,7.4-5.9
			c3.3-2.1,1.5-0.3-0.2,1.5c-1.2,1.3-2.4,2.5-3.6,3.7c-2.9,2.9-5.8,5.7-8.8,8.4c-0.1,0.1,0.2,0,0.2,0c2.4-1.7,4.8-3.5,7.2-5.2
			c2.3-1.7,5.2-4.8,7.9-5.8c1.2-0.4,1.2-0.8-0.3,1.2c-0.9,1.2-1.9,2.3-2.9,3.4c-2.1,2.5-4.3,4.8-6.6,7.2c-0.1,0.1,0.2,0,0.3,0
			c0.3-0.3,10.4-8.4,10.8-8c1.5,1.6-6.4,6.9-7.7,7.7c-0.1,0.1,0.2,0,0.2,0c3.8-1.6,7.4-3.3,10.1-6.5c0.1-0.1-0.2,0-0.3,0
			c-2,2.2-4.4,4.2-7.2,5.2c-3.4,1.3,0.1-0.4,0.9-1c2.2-1.8,4-3.9,5.5-6.3c0-0.1-0.2,0-0.3,0c-1.4,0.8-11.1,6.8-10.9,7.7
			c-0.2-0.6,4.4-4.8,4.9-5.3c1.9-2.2,3.8-4.5,5.7-6.8c0.1-0.1-0.2,0-0.2,0c-2.9,2.1-5.7,4.2-8.6,6.3c-1.7,1.3-5.6,5-7.1,5.1
			c1.7-0.1,6.2-5.9,7.5-7.2c2.5-2.5,4.9-5,7.2-7.6c0.1-0.1-0.2,0-0.2,0c-2.2,1.2-4,2.7-6,4.2c-2.1,1.7-4.2,3.4-6.5,4.9
			c-1.4,0.9-2.9,1.7-4.4,2.5c-1.7,1.1-2,1.1-0.9,0c1.6-2.4,5.4-4.5,7.5-6.6c2.8-3,5.5-6.1,8.6-8.7c0.1-0.1-0.2,0-0.2,0
			c-5.7,1.8-10.5,6.7-15.2,10.3c-0.9,0.7-3.9,4-2.2,0.7c0.7-1.3,2.1-2.6,3.2-3.7c3-3.1,6.4-5.8,10-8.1c0.1-0.1-0.2,0-0.2,0
			c-3.8,1.7-7.7,3.4-10.9,6c-0.3,0.2-2.4,1.8-2.3,2.1c0,0,1.9-2,2-2.2c2.1-2.4,4.4-4.6,6.8-6.8c0.1-0.1-0.2,0-0.2,0
			c-2.4,1-4.8,2-7.2,3C118.2,109.5,118.4,109.5,118.5,109.5L118.5,109.5z"/>
	</g>
</g>
<g>
	<g>
		<path class="st3" d="M32.6,124.8c1-1,3.2-3.5,4.7-3.7c2.6-0.3,0.3,1.4-0.6,2.3c-2,2.1-3.9,4.3-5.9,6.4c-0.1,0.1,0.1,0.2,0.2,0.1
			c2.6-1.8,5.1-3.6,7.7-5.4c1.2-0.8,6.2-5.4,3.9-1.9c-3.3,4.8-8.7,8.8-13.3,12.2c-0.1,0.1,0,0.2,0.2,0.1c3.2-1.6,6.3-3.3,9.3-5.3
			c3.1-2.1,6-5.6,9.5-6.9c1.7-0.8,1.7-0.6-0.1,0.7c-1.3,1.2-2.7,2.4-4.1,3.6c-1.4,1.2-2.8,2.3-4.3,3.4c-3.4,2.6-6.9,5-10.5,7.2
			c-0.1,0.1,0,0.2,0.1,0.2c3.6-0.1,6.7-1,9.8-2.8c1.4-0.8,12.5-10.4,12.7-10.3c-0.1-0.1-11.3,8.9-12.5,9.7c-3.7,2.3-7.3,4.2-9.8,7.8
			c-0.1,0.1,0.2,0.1,0.2,0.1c4.3-2.7,8.6-5.4,12.9-8.1c1.6-1,3.2-2,4.8-3c1.7-1.1,5.2-2.4,6.4-4.1c-2.1,2.8-6.4,5.2-9.1,7.4
			c-3.4,2.8-7.5,5.4-10.5,8.6c2.6-2.8,7.6-5.6,11.2-7.5c1.5-0.8,3-1.6,4.6-2.3c0.7-0.3,5.4-2.8,1.6-0.7c-6.4,3.6-11.9,7.7-16.9,13.2
			c-0.1,0.1,0.1,0.2,0.2,0.1c3.6-3,7.2-6,11.1-8.4c0.5-0.3,6.1-3.9,6.4-2.7c0.2,0.8-5.5,5.3-5.9,5.7c-0.5,0.4-5.5,4-2.8,2.6
			c2.3-1.2,4.4-3,6.7-4.4c2.3-1.3,4.7-2.6,1.7,0.3c-2.6,2.5-5.4,4.5-8.5,6.2c-0.2,0.1,0,0.2,0.1,0.2c2.7-1.2,5.3-3.6,7.9-4.6
			c2.3-0.9-2.2,1.9-2.8,2.3c-2.3,1.1-4.7,2-7.2,2.8c-0.2,0.1-0.1,0.2,0,0.2c2.1-0.7,13.5-3.8,12-7c0-0.1-0.2-0.1-0.2,0
			c-2.1,1.8-4.3,3.3-6.8,4.7c-3.9,2.2,0-0.1,0-0.1c3.2-2.3,6-4.6,8.6-7.6c0.1-0.1-0.1-0.2-0.2-0.1c-4.8,2.5-9.3,5.3-13.6,8.5
			c-0.2,0.1,0.1,0.2,0.2,0.1c4.5-3.3,8.5-6.9,12.2-11c0.1-0.1-0.1-0.1-0.2-0.1c-3,1.2-5.8,2.6-8.5,4.3c-0.5,0.3-9.3,6.4-9,6.9
			c-0.4-0.7,6.7-6.2,7.3-6.6c3.5-2.7,7.3-4.9,11.3-6.7c0.2-0.1,0-0.2-0.1-0.2c-8,3.1-15.3,7.4-21.8,13c-0.1,0.1,0.1,0.2,0.2,0.1
			c7.5-6.1,15-12.2,22.5-18.2c0.2-0.1-0.1-0.2-0.2-0.1c-4.3,2.7-8.6,5.4-12.9,8.1c-2.1,1.4-4.3,2.7-6.4,4.1
			c-0.7,0.5-6.2,4.7-4.3,1.7c2.2-3.5,8.9-5.9,12.2-8.3c3.3-2.4,6.4-5.1,9.4-7.9c0.1-0.1-0.1-0.2-0.2-0.1c-3.3,2.5-6.2,5.4-9.5,8.1
			c-2.1,1.7-4.3,3.3-6.8,4.4c-0.8,0.4-8,3.5-5.1,0.4c2.6-2.9,7.2-5,10.3-7.4c3.1-2.5,6-5.1,8.9-7.8c0.1-0.1-0.1-0.2-0.1-0.1
			c-2.7,0.8-4.4,2.6-6.6,4.3c-1.8,1.5-3.7,2.9-5.7,4.3c-1.8,1.2-4.8,3.9-6.9,4.1c-2.3,0.3,0.8-0.9,1.7-1.6c1.1-0.9,2.1-1.8,3.1-2.7
			c3.1-2.8,5.8-5.8,8.4-9.1c0.1-0.1-0.1-0.2-0.2-0.1c-3.5,2.4-7.6,6.6-11.6,8.1c-2.5,0.9,1.3-2,1.8-2.5c1.7-1.9,3.5-3.8,5.2-5.7
			c0.1-0.1-0.1-0.2-0.1-0.1c-3,1.1-5.5,2.6-7.7,4.9C32.2,124.8,32.5,124.9,32.6,124.8L32.6,124.8z"/>
	</g>
</g>
<path class="st2" d="M129.7,35.7c3.9-13.8,9.2-14.8,12.7-13.4c3.5,1.4,7.8,6.5,0,18.4c-8.8,11.4-12.4,18.6-15.7,21
	C122.4,65,125.9,49.2,129.7,35.7z"/>
<path class="st2" d="M43.6,31.5c-5.6-11.7-9.7-12.9-13.3-11.2s-5.2,5.7,0.3,17.4S42.4,63.7,47,64.4C50.5,62.7,49.2,43.1,43.6,31.5z"
	/>
<path d="M192.2,325.7c-8.1-2.8-24.6-2.8-28.4-2.8s-9.9,0-14.6,1.9c-4.8,1.9-15.3,14.3,2.5,14.3S188.1,328.3,192.2,325.7"/>
</svg>
